<svg viewBox="0 0 600 400" xmlns="http://www.w3.org/2000/svg">
  <defs>
    <linearGradient id="bg5" x1="0" y1="0" x2="1" y2="1">
      <stop offset="0%" stop-color="#0E1729"/>
      <stop offset="100%" stop-color="#05070B"/>
    </linearGradient>
    <radialGradient id="glow5" cx="62%" cy="28%" r="65%">
      <stop offset="0%" stop-color="#0066FF" stop-opacity="0.4"/>
      <stop offset="100%" stop-color="#0066FF" stop-opacity="0"/>
    </radialGradient>
    <linearGradient id="filterBody" x1="0" y1="0" x2="1" y2="0">
      <stop offset="0%" stop-color="#111827"/>
      <stop offset="15%" stop-color="#374151"/>
      <stop offset="50%" stop-color="#2A3648"/>
      <stop offset="85%" stop-color="#374151"/>
      <stop offset="100%" stop-color="#111827"/>
    </linearGradient>
    <linearGradient id="metal3" x1="0" y1="0" x2="0" y2="1">
      <stop offset="0%" stop-color="#E5E7EB"/>
      <stop offset="100%" stop-color="#9CA3AF"/>
    </linearGradient>
  </defs>
  <rect width="600" height="400" fill="url(#bg5)"/>
  <rect width="600" height="400" fill="url(#glow5)"/>
  <ellipse cx="300" cy="335" rx="210" ry="24" fill="#000000" opacity="0.35"/>

  <g transform="translate(215,75)">
    <ellipse cx="65" cy="22" rx="65" ry="20" fill="#0066FF"/>
    <ellipse cx="65" cy="22" rx="65" ry="20" fill="none" stroke="#95B9FF" stroke-width="2" opacity="0.6"/>
    <rect x="0" y="22" width="130" height="195" fill="url(#filterBody)"/>
    <ellipse cx="65" cy="217" rx="65" ry="20" fill="#0B121F" stroke="#0066FF" stroke-width="2"/>
    <g stroke="#05070B" stroke-width="2.5" opacity="0.55">
      <line x1="16" y1="32" x2="16" y2="207"/>
      <line x1="37" y1="36" x2="37" y2="211"/>
      <line x1="58" y1="38" x2="58" y2="213"/>
      <line x1="79" y1="38" x2="79" y2="213"/>
      <line x1="100" y1="36" x2="100" y2="211"/>
      <line x1="114" y1="32" x2="114" y2="207"/>
    </g>
    <g transform="translate(65,22)">
      <polygon points="0,-16 14,-8 14,8 0,16 -14,8 -14,-8" fill="#95B9FF"/>
      <polygon points="0,-16 14,-8 14,8 0,16 -14,8 -14,-8" fill="none" stroke="#0066FF" stroke-width="1.5"/>
    </g>
  </g>

  <g transform="translate(400,140) rotate(18)">
    <rect x="-8" y="-12" width="130" height="24" rx="12" fill="url(#metal3)"/>
    <path d="M110 -26 a26 26 0 1 1 0 52 a26 26 0 0 1 0 -52 z M110 -12 a12 12 0 1 0 0 24 a12 12 0 0 0 0 -24 z" fill="url(#metal3)"/>
  </g>

  <path d="M195 265 C195 282 182 291 182 305 a14 14 0 0 0 28 0 C210 291 195 282 195 265 Z" fill="#3A82FF"/>
  <ellipse cx="188" cy="278" rx="4" ry="7" fill="#E8F0FF" opacity="0.7"/>

  <g transform="translate(495,95)">
    <path d="M6 0 L20 0 L11 24 L26 24 L0 60 L8 30 L-6 30 Z" fill="#95B9FF"/>
  </g>
</svg>
