<svg viewBox="0 0 600 400" xmlns="http://www.w3.org/2000/svg">
  <defs>
    <linearGradient id="bg1" x1="0" y1="0" x2="1" y2="1">
      <stop offset="0%" stop-color="#0B1220"/>
      <stop offset="100%" stop-color="#05070B"/>
    </linearGradient>
    <radialGradient id="glow1" cx="30%" cy="20%" r="60%">
      <stop offset="0%" stop-color="#0066FF" stop-opacity="0.35"/>
      <stop offset="100%" stop-color="#0066FF" stop-opacity="0"/>
    </radialGradient>
    <linearGradient id="metal1" x1="0" y1="0" x2="0" y2="1">
      <stop offset="0%" stop-color="#C0C0C0"/>
      <stop offset="100%" stop-color="#6B7280"/>
    </linearGradient>
  </defs>
  <rect width="600" height="400" fill="url(#bg1)"/>
  <rect width="600" height="400" fill="url(#glow1)"/>

  <g transform="translate(160,110)">
    <rect x="0" y="60" width="220" height="140" rx="14" fill="#111827" stroke="#0066FF" stroke-width="3"/>
    <rect x="20" y="0" width="60" height="70" rx="8" fill="#1F2937" stroke="#374151" stroke-width="2"/>
    <rect x="100" y="0" width="60" height="70" rx="8" fill="#1F2937" stroke="#374151" stroke-width="2"/>
    <circle cx="50" cy="35" r="14" fill="#0066FF" opacity="0.8"/>
    <circle cx="130" cy="35" r="14" fill="#0066FF" opacity="0.8"/>
    <circle cx="15" cy="75" r="5" fill="url(#metal1)"/>
    <circle cx="205" cy="75" r="5" fill="url(#metal1)"/>
    <circle cx="15" cy="185" r="5" fill="url(#metal1)"/>
    <circle cx="205" cy="185" r="5" fill="url(#metal1)"/>
    <rect x="30" y="120" width="160" height="10" rx="5" fill="#0B1220" stroke="#0066FF" stroke-width="1.5"/>
    <rect x="30" y="150" width="160" height="10" rx="5" fill="#0B1220" stroke="#0066FF" stroke-width="1.5"/>
  </g>

  <g transform="translate(390,230) rotate(-35)">
    <rect x="0" y="-9" width="130" height="18" rx="9" fill="url(#metal1)"/>
    <path d="M120 -22 a22 22 0 1 1 0 44 a22 22 0 0 1 0 -44 z M120 -10 a10 10 0 1 0 0 20 a10 10 0 0 0 0 -20 z" fill="url(#metal1)"/>
    <path d="M-10 -14 L14 -14 L14 14 L-10 14 L-20 0 Z" fill="url(#metal1)"/>
  </g>

  <path d="M300 250 L316 250 L306 275 L326 275 L296 320 L304 285 L286 285 Z" fill="#0066FF"/>

  <g transform="translate(40,40)">
    <rect width="150" height="34" rx="17" fill="#0066FF" opacity="0.15" stroke="#0066FF" stroke-width="1.5"/>
    <text x="75" y="22" font-family="Arial, sans-serif" font-size="13" font-weight="700" fill="#95B9FF" text-anchor="middle" letter-spacing="1">HOME SERVICE</text>
  </g>
</svg>
