<svg viewBox="0 0 600 400" xmlns="http://www.w3.org/2000/svg">
  <defs>
    <linearGradient id="bg2" x1="0" y1="0" x2="1" y2="1">
      <stop offset="0%" stop-color="#0E1729"/>
      <stop offset="100%" stop-color="#05070B"/>
    </linearGradient>
    <radialGradient id="glow2" cx="68%" cy="24%" r="70%">
      <stop offset="0%" stop-color="#0066FF" stop-opacity="0.5"/>
      <stop offset="100%" stop-color="#0066FF" stop-opacity="0"/>
    </radialGradient>
    <linearGradient id="metal2" x1="0" y1="0" x2="0" y2="1">
      <stop offset="0%" stop-color="#F3F4F6"/>
      <stop offset="100%" stop-color="#9CA3AF"/>
    </linearGradient>
    <linearGradient id="ecuBody" x1="0" y1="0" x2="1" y2="1">
      <stop offset="0%" stop-color="#1F2A3D"/>
      <stop offset="100%" stop-color="#0B121F"/>
    </linearGradient>
  </defs>
  <rect width="600" height="400" fill="url(#bg2)"/>
  <rect width="600" height="400" fill="url(#glow2)"/>
  <ellipse cx="300" cy="330" rx="220" ry="26" fill="#000000" opacity="0.35"/>

  <g transform="translate(115,150)">
    <rect x="0" y="30" width="195" height="130" rx="16" fill="url(#ecuBody)" stroke="#0066FF" stroke-width="3"/>
    <circle cx="45" cy="90" r="22" fill="#0066FF"/>
    <circle cx="45" cy="90" r="10" fill="#95B9FF"/>
    <circle cx="150" cy="90" r="22" fill="#0066FF"/>
    <circle cx="150" cy="90" r="10" fill="#95B9FF"/>
    <rect x="25" y="140" width="145" height="12" rx="6" fill="#0B121F" stroke="#0066FF" stroke-width="1.5"/>
  </g>

  <path d="M290 195 C340 195 335 250 400 250" stroke="#0066FF" stroke-width="5" fill="none" stroke-linecap="round"/>
  <circle cx="400" cy="250" r="5" fill="#95B9FF"/>

  <g transform="translate(365,235)">
    <rect x="-4" y="-4" width="128" height="82" rx="8" fill="url(#metal2)"/>
    <rect x="4" y="4" width="112" height="58" rx="4" fill="#0B121F" stroke="#0066FF" stroke-width="2"/>
    <path d="M18 48 L36 24 L52 38 L70 12 L98 42" stroke="#0066FF" stroke-width="4" fill="none" stroke-linecap="round" stroke-linejoin="round"/>
    <circle cx="36" cy="24" r="3.5" fill="#95B9FF"/>
    <circle cx="70" cy="12" r="3.5" fill="#95B9FF"/>
    <rect x="-4" y="78" width="128" height="10" rx="5" fill="#9CA3AF"/>
  </g>

  <g transform="translate(480,90)">
    <path d="M8 0 L26 0 L14 32 L32 32 L0 78 L10 40 L-8 40 Z" fill="#95B9FF"/>
  </g>
  <g transform="translate(80,60) scale(0.55)">
    <path d="M8 0 L26 0 L14 32 L32 32 L0 78 L10 40 L-8 40 Z" fill="#0066FF"/>
  </g>
  <circle cx="230" cy="90" r="3" fill="#95B9FF" opacity="0.8"/>
  <circle cx="250" cy="70" r="2" fill="#95B9FF" opacity="0.6"/>
</svg>
